HIERARCHY
ROOT Hips
{
	OFFSET 0.000000 0.000000 0.000000
	CHANNELS 6 Xposition Yposition Zposition Zrotation Yrotation Xrotation 
	JOINT LHipJoint
	{
		OFFSET 0.000000 0.000000 0.000000
		CHANNELS 3 Zrotation Yrotation Xrotation
		JOINT LeftUpLeg
		{
			OFFSET 1.363060 -1.794630 0.839290
			CHANNELS 3 Zrotation Yrotation Xrotation
			JOINT LeftLeg
			{
				OFFSET 2.448110 -6.726130 0.000000
				CHANNELS 3 Zrotation Yrotation Xrotation
				JOINT LeftFoot
				{
					OFFSET 2.562200 -7.039590 0.000000
					CHANNELS 3 Zrotation Yrotation Xrotation
					JOINT LeftToeBase
					{
						OFFSET 0.157640 -0.433110 2.322550
						CHANNELS 3 Zrotation Yrotation Xrotation
						End Site
						{
							OFFSET 0.000000 0.000000 0.000000
						}
					}
				}
			}
		}
	}
	JOINT RHipJoint
	{
		OFFSET 0.000000 0.000000 0.000000
		CHANNELS 3 Zrotation Yrotation Xrotation
		JOINT RightUpLeg
		{
			OFFSET -1.305520 -1.794630 0.839290
			CHANNELS 3 Zrotation Yrotation Xrotation
			JOINT RightLeg
			{
				OFFSET -2.542530 -6.985550 0.000000
				CHANNELS 3 Zrotation Yrotation Xrotation
				JOINT RightFoot
				{
					OFFSET -2.568260 -7.056230 0.000000
					CHANNELS 3 Zrotation Yrotation Xrotation
					JOINT RightToeBase
					{
						OFFSET -0.164730 -0.452590 2.363150
						CHANNELS 3 Zrotation Yrotation Xrotation
						End Site
						{
							OFFSET 0.000000 0.000000 0.000000
						}
					}
				}
			}
		}
	}
	JOINT LowerBack
	{
		OFFSET 0.000000 0.000000 0.000000
		CHANNELS 3 Zrotation Yrotation Xrotation
		JOINT Spine
		{
			OFFSET 0.028270 2.035590 -0.193380
			CHANNELS 3 Zrotation Yrotation Xrotation
			JOINT Spine1
			{
				OFFSET 0.056720 2.048850 -0.042750
				CHANNELS 3 Zrotation Yrotation Xrotation
				JOINT Neck
				{
					OFFSET 0.000000 0.000000 0.000000
					CHANNELS 3 Zrotation Yrotation Xrotation
					JOINT Neck1
					{
						OFFSET -0.054170 1.746240 0.172020
						CHANNELS 3 Zrotation Yrotation Xrotation
						JOINT Head
						{
							OFFSET 0.104070 1.761360 -0.123970
							CHANNELS 3 Zrotation Yrotation Xrotation
							End Site
							{
								OFFSET 0.000000 0.000000 0.000000
							}
						}
					}
				}
				JOINT LeftShoulder
				{
					OFFSET 0.000000 0.000000 0.000000
					CHANNELS 3 Zrotation Yrotation Xrotation
					JOINT LeftArm
					{
						OFFSET 3.362410 1.200890 -0.311210
						CHANNELS 3 Zrotation Yrotation Xrotation
						JOINT LeftForeArm
						{
							OFFSET 4.983000 -0.000000 -0.000000
							CHANNELS 3 Zrotation Yrotation Xrotation
							JOINT LeftHand
							{
								OFFSET 3.483560 -0.000000 -0.000000
								CHANNELS 3 Zrotation Yrotation Xrotation
								JOINT LeftFingerBase
								{
									OFFSET 0.000000 0.000000 0.000000
									CHANNELS 3 Zrotation Yrotation Xrotation
									JOINT LeftHandIndex1
									{
										OFFSET 0.715260 -0.000000 -0.000000
										CHANNELS 3 Zrotation Yrotation Xrotation
										End Site
										{
											OFFSET 0.000000 0.000000 0.000000
										}
									}
								}
								JOINT LThumb
								{
									OFFSET 0.000000 0.000000 0.000000
									CHANNELS 3 Zrotation Yrotation Xrotation
									End Site
									{
										OFFSET 0.000000 0.000000 0.000000
									}
								}
							}
						}
					}
				}
				JOINT RightShoulder
				{
					OFFSET 0.000000 0.000000 0.000000
					CHANNELS 3 Zrotation Yrotation Xrotation
					JOINT RightArm
					{
						OFFSET -3.136600 1.374050 -0.404650
						CHANNELS 3 Zrotation Yrotation Xrotation
						JOINT RightForeArm
						{
							OFFSET -5.241900 -0.000000 -0.000000
							CHANNELS 3 Zrotation Yrotation Xrotation
							JOINT RightHand
							{
								OFFSET -3.444170 -0.000000 -0.000000
								CHANNELS 3 Zrotation Yrotation Xrotation
								JOINT RightFingerBase
								{
									OFFSET 0.000000 0.000000 0.000000
									CHANNELS 3 Zrotation Yrotation Xrotation
									JOINT RightHandIndex1
									{
										OFFSET -0.622530 -0.000000 -0.000000
										CHANNELS 3 Zrotation Yrotation Xrotation
										End Site
										{
											OFFSET 0.000000 0.000000 0.000000
										}
									}
								}
								JOINT RThumb
								{
									OFFSET 0.000000 0.000000 0.000000
									CHANNELS 3 Zrotation Yrotation Xrotation
									End Site
									{
										OFFSET 0.000000 0.000000 0.000000
									}
								}
							}
						}
					}
				}
			}
		}
	}
}
MOTION
Frames: 7
Frame Time: 0.033333
-0.111290 17.058127 -0.111290 -4.013878 -3.085137 5.736969 -5.604557 13.920227 2.508290 -10.371837 -4.640308 -12.564882 7.833753 10.505270 29.184836 0.059768 -6.943339 -26.538730 0.000000 0.000000 0.000000 0.114981 -23.735530 -9.825879 37.117529 10.130744 -4.972989 -11.931555 -5.053666 38.082423 0.359293 9.207853 -28.975011 0.000000 0.000000 0.000000 1.953265 2.528146 13.511743 2.384520 3.017597 -0.834103 -3.982223 3.826415 -5.912987 4.331152 -0.503742 -4.482210 1.554958 -0.127372 3.521119 0.000000 0.000000 0.000000 5.897372 6.626150 9.150962 -69.034939 -5.314087 21.314468 -18.296916 -77.647088 0.498388 1.833395 -14.844000 0.242679 1.886138 -14.844329 0.000000 0.000000 0.000000 0.000000 0.000000 0.000000 0.000000 -12.967784 -9.503147 2.653155 83.875013 14.787171 6.067067 159.797550 68.928148 -179.960746 -2.950012 3.709980 0.018630 -2.958889 3.708444 0.000000 0.000000 0.000000 0.000000 0.000000 0.000000 0.000000 
-0.063465 17.061626 -0.127592 -4.099961 -1.483101 6.667343 -5.789070 12.792821 1.465910 -10.118444 -4.999498 -12.730206 7.532728 10.512913 29.816426 0.110484 -6.949522 -26.491856 0.000000 0.000000 0.000000 0.016356 -20.506080 -8.010910 33.298499 10.441638 -5.924214 -7.126551 -4.489963 34.431534 -1.211150 13.262098 -32.361426 0.000000 0.000000 0.000000 2.435987 2.099398 13.132336 2.318617 2.694714 -1.420030 -4.166642 3.518348 -6.035246 3.763475 -0.358157 -3.506394 2.067544 -0.139016 3.994107 0.000000 0.000000 0.000000 5.882534 6.696850 9.086519 -68.889706 -5.446718 21.864938 -19.226779 -77.185082 0.518148 1.636903 -14.888900 0.252691 1.686521 -14.890557 0.000000 0.000000 0.000000 0.000000 0.000000 0.000000 0.000000 -12.671484 -10.324512 2.320874 83.709053 14.248177 6.529265 160.122045 68.933563 -179.952981 -2.914627 3.718069 0.022570 -2.922898 3.716845 0.000000 0.000000 0.000000 0.000000 0.000000 0.000000 0.000000 
-0.016215 17.066418 -0.146107 -4.007780 0.046479 7.531678 -6.105651 11.695865 0.520654 -9.871796 -5.356294 -12.920825 7.227717 10.522980 30.427263 0.154995 -6.930769 -26.413952 0.000000 0.000000 0.000000 0.283606 -17.467366 -6.237830 29.234429 10.281477 -6.872148 -2.800820 -4.128911 30.338106 -1.934056 15.635997 -34.597211 0.000000 0.000000 0.000000 2.756000 1.716134 12.729714 2.239037 2.364801 -1.806938 -4.318413 3.201799 -6.270710 3.268692 -0.230713 -2.608116 2.504027 -0.157988 4.449784 0.000000 0.000000 0.000000 5.853277 6.816015 9.002073 -68.758113 -5.578854 22.431274 -20.153638 -76.707688 0.538793 1.442327 -14.933067 0.263147 1.488706 -14.936006 0.000000 0.000000 0.000000 0.000000 0.000000 0.000000 0.000000 -12.400632 -11.159442 1.977725 83.523641 13.715935 7.004797 160.440616 68.926055 -179.944922 -2.878105 3.726139 0.026659 -2.885747 3.725235 0.000000 0.000000 0.000000 0.000000 0.000000 0.000000 0.000000 
0.030730 17.072943 -0.166138 -3.976950 0.144091 7.966584 -6.262163 11.555499 0.235817 -9.720430 -5.600780 -13.384828 6.815307 10.738556 30.955332 0.123970 -6.767423 -26.344698 0.000000 0.000000 0.000000 0.416968 -17.217050 -5.618649 28.401930 10.570590 -7.531451 -2.013858 -3.863936 29.388148 -2.128976 16.165173 -34.965794 0.000000 0.000000 0.000000 2.860206 1.773987 12.765209 2.073549 2.396342 -2.037071 -4.455534 3.249190 -6.603803 2.848990 -0.116339 -1.766387 2.891824 -0.181446 4.884287 0.000000 0.000000 0.000000 5.843521 7.171971 8.874048 -68.635982 -5.659968 23.004633 -21.088204 -76.219300 0.560537 1.247405 -14.970227 0.274162 1.290385 -14.974421 0.000000 0.000000 0.000000 0.000000 0.000000 0.000000 0.000000 -12.104773 -11.824089 1.629591 83.322684 13.252924 7.511207 160.738122 68.910541 -179.935872 -2.839451 3.735931 0.031250 -2.846370 3.735385 0.000000 0.000000 0.000000 0.000000 0.000000 0.000000 0.000000 
0.077704 17.081597 -0.187067 -3.979876 0.208335 8.370946 -6.395739 11.442950 -0.011699 -9.547175 -5.840250 -13.856963 6.391364 10.956120 31.456795 0.087400 -6.582318 -26.231030 0.000000 0.000000 0.000000 0.474403 -17.023751 -5.038252 27.742788 10.896453 -8.098460 -1.173018 -3.502324 28.401063 -2.322626 16.744063 -35.278573 0.000000 0.000000 0.000000 2.975767 1.835263 12.793295 1.916089 2.430931 -2.165509 -4.570752 3.301489 -6.998059 2.480053 -0.017606 -0.972410 3.215388 -0.208114 5.296474 0.000000 0.000000 0.000000 5.822497 7.563208 8.733624 -68.524129 -5.738758 23.578168 -22.025086 -75.713961 0.582526 1.054201 -15.006008 0.285297 1.093743 -15.011404 0.000000 0.000000 0.000000 0.000000 0.000000 0.000000 0.000000 -11.826771 -12.482130 1.280029 83.102994 12.799752 8.020356 161.031640 68.885586 -179.926755 -2.800598 3.745955 0.035874 -2.806790 3.745763 0.000000 0.000000 0.000000 0.000000 0.000000 0.000000 0.000000 
0.119662 17.088801 -0.213955 -3.967729 0.200719 8.371593 -6.446966 11.500204 0.008550 -9.488980 -5.971500 -14.057740 6.047455 11.048800 31.642552 0.064428 -6.510223 -26.153368 0.000000 0.000000 0.000000 0.391487 -17.182400 -4.760840 27.696013 10.999153 -8.240982 -1.015428 -3.333538 28.056145 -2.399598 16.902968 -35.291576 0.000000 0.000000 0.000000 3.111622 1.943355 12.500981 1.897635 2.469594 -1.928768 -4.508260 3.367661 -7.366175 2.545034 -0.020230 -0.933574 3.038919 -0.196093 5.180036 0.000000 0.000000 0.000000 5.368125 7.640631 8.750393 -68.320377 -5.638297 23.860668 -26.546432 -72.646047 0.625232 0.295093 -14.791556 0.307535 0.322301 -14.800496 0.000000 0.000000 0.000000 0.000000 0.000000 0.000000 0.000000 -11.387837 -12.556129 1.416804 82.344439 11.591851 8.568863 161.856850 69.229863 -179.923916 -2.943722 4.087896 0.037164 -2.951565 4.086877 0.000000 0.000000 0.000000 0.000000 0.000000 0.000000 0.000000 
0.162118 17.098419 -0.240929 -3.946685 0.201675 8.362485 -6.516853 11.545158 0.041574 -9.415570 -6.093934 -14.251912 5.693356 11.136750 31.796059 0.039473 -6.424237 -26.032484 0.000000 0.000000 0.000000 0.340885 -17.320701 -4.466728 27.594661 11.122814 -8.420901 -0.862333 -3.205920 27.813974 -2.448573 17.017337 -35.254224 0.000000 0.000000 0.000000 3.241468 2.050784 12.165919 1.884337 2.503210 -1.616617 -4.437073 3.428885 -7.792827 2.637899 -0.032157 -0.938761 2.827502 -0.183948 5.050518 0.000000 0.000000 0.000000 4.894593 7.755383 8.763402 -68.118253 -5.649809 23.530402 -31.300548 -68.910401 0.648724 -0.437762 -14.430493 0.320181 -0.421503 -14.441720 0.000000 0.000000 0.000000 0.000000 0.000000 0.000000 0.000000 -10.950885 -12.632441 1.571256 81.558330 10.350477 9.153663 162.706452 69.641970 -179.920314 -3.086456 4.458412 0.038830 -3.096109 4.456520 0.000000 0.000000 0.000000 0.000000 0.000000 0.000000 0.000000 
